PathFileType	4	(X/Y/Z)	D:\TRACE\spot_10-12-23\spot_arm_body_motion_3_4-platform.trc
DataRate	CameraRate	NumFrames	NumMarkers	Units	OrigDataRate	OrigDataStartFrame	OrigNumFrames
100.00	100.00	      55	5	mm	100.00	876	      7000
Frame#	Time	Left_Front			Right_Front			Left_Aft			Right_Aft			Post			
		X1	Y1	Z1	X2	Y2	Z2	X3	Y3	Z3	X4	Y4	Z4	X5	Y5	Z5	

876	8.750	-792.27582	-17.30951	-646.74005	780.29395	-12.22507	-639.75989	-709.43530	20.82749	490.86853	707.83301	28.47596	576.69116	-9.14332	709.24371	-990.14917	
877	8.760	-792.30365	-17.50116	-646.77985	780.32581	-12.41255	-639.83386	-709.44928	20.92931	490.87891	707.84967	28.57918	576.65906	-9.16338	708.75543	-990.32129	
878	8.770	-792.26099	-17.66537	-646.85516	780.35889	-12.66710	-639.90503	-709.49847	21.08474	490.79178	707.84296	28.70500	576.59521	-9.26382	708.51788	-990.43018	
879	8.780	-792.35016	-17.83468	-646.88190	780.59167	-12.95577	-639.80463	-709.46265	21.23614	490.74472	707.87323	28.95051	576.54425	-9.11250	707.99689	-990.66064	
880	8.790	-792.33191	-18.15444	-646.88568	780.57269	-13.17734	-639.84186	-709.42975	21.48002	490.63834	707.91541	29.20515	576.45685	-8.85993	707.65356	-990.94049	
881	8.800	-792.29633	-18.43544	-646.98584	780.71356	-13.55650	-639.75903	-709.35223	21.70928	490.42639	707.95740	29.49087	576.33411	-8.87704	707.32928	-991.18164	
882	8.810	-792.18274	-18.79675	-647.05212	780.72833	-14.02493	-639.83173	-709.21765	21.92600	490.34381	708.03918	29.67932	576.29120	-8.79008	706.83588	-991.73596	
883	8.820	-791.99481	-19.16572	-647.04108	780.79474	-14.32343	-639.88409	-708.98260	22.16323	490.28238	708.04913	29.80323	576.20166	-8.50953	706.32275	-992.47162	
884	8.830	-791.63605	-19.72981	-647.12799	780.84100	-14.58963	-639.97437	-708.79608	22.34015	490.18967	708.22095	30.06815	576.16046	-8.49024	705.90588	-992.91370	
885	8.840	-791.64203	-19.73413	-647.24683	780.97540	-14.88400	-640.04474	-708.72559	22.54533	490.14795	708.35541	30.29318	576.20038	-8.69557	705.59650	-993.15955	
886	8.850	-791.59674	-19.88748	-647.26062	781.00256	-15.09049	-640.16052	-708.68365	22.74664	489.97339	708.43610	30.48058	576.18127	-8.41818	705.15631	-993.84869	
887	8.860	-791.36371	-20.03883	-647.42206	781.15247	-15.29455	-640.27454	-708.60284	22.88528	489.80267	708.60175	30.76869	576.07422	-8.16230	704.43909	-994.40717	
888	8.870	-791.40436	-19.98404	-647.38647	781.19049	-15.47736	-640.34454	-708.57227	23.03664	489.77466	708.72528	31.06261	575.95111	-8.18011	703.95245	-994.76654	
889	8.880	-791.16876	-20.89997	-647.48010	781.57184	-16.13920	-640.38318	-708.37878	23.25002	489.81793	708.91937	31.45281	575.83978	-8.01089	703.60077	-995.14319	
890	8.890	-790.84784	-21.73707	-647.53253	781.66351	-16.42040	-640.50745	-708.11871	23.32448	489.78302	709.22607	31.64872	575.73383	-7.97797	703.40759	-995.35870	
891	8.900	-790.83997	-21.41867	-647.61224	781.76935	-16.39483	-640.60101	-707.91791	23.40834	489.69046	709.41132	31.77993	575.68939	-7.79165	703.06183	-995.50818	
892	8.910	-790.67712	-21.28440	-647.65442	781.99365	-16.46818	-640.61115	-707.72101	23.57683	489.67615	709.51471	31.94744	575.65607	-7.34372	702.44324	-995.89178	
893	8.920	-790.77814	-21.40529	-647.57910	782.07916	-16.81408	-640.69769	-707.44385	24.06451	489.62924	709.76270	32.13221	575.60474	-7.20451	702.07727	-996.15485	
894	8.930	-790.51074	-22.19916	-647.64374	782.19098	-17.14681	-640.72540	-707.35211	24.30061	489.56509	709.92432	32.45253	575.55206	-7.08945	701.72260	-996.33795	
895	8.940	-790.29218	-22.68032	-647.77222	782.32458	-17.29438	-640.79907	-707.29504	24.48403	489.49814	710.06921	32.74701	575.42621	-6.81813	701.14093	-996.59821	
896	8.950	-790.12610	-23.09071	-647.83508	782.44055	-17.75448	-640.86963	-707.20325	24.59649	489.35086	710.22681	32.89292	575.30573	-6.76724	700.66846	-996.84076	
897	8.960	-789.89600	-23.24857	-647.90759	782.70642	-18.66720	-640.90387	-707.08356	24.71981	489.16440	710.34229	33.06662	575.18903	-6.55177	700.17346	-997.26801	
898	8.970	-789.67334	-23.27040	-647.95984	782.94153	-18.90617	-640.88330	-706.81384	24.92401	489.04312	710.56470	33.48583	575.09045	-6.52525	699.79205	-997.59143	
899	8.980	-789.26013	-23.92834	-648.12280	783.20319	-19.00966	-640.97229	-706.45490	25.36613	489.07635	710.83325	33.89392	574.96448	-6.00379	699.06860	-998.25153	
900	8.990	-789.12286	-24.29089	-648.19379	783.48962	-19.24213	-640.98395	-706.32184	25.67194	488.97653	710.98572	34.05694	574.83136	-5.92062	698.63214	-998.60364	
901	9.000	-789.03394	-24.58765	-648.23877	783.60431	-19.47865	-641.19379	-706.14966	25.68684	488.80927	711.19061	34.13573	574.65240	-5.73439	698.12823	-999.27222	
902	9.010	-788.90234	-24.64812	-648.30621	783.65533	-19.66495	-641.39026	-706.08105	25.74314	488.84634	711.33716	34.16782	574.59625	-5.69521	697.72278	-1000.20587	
903	9.020	-788.65546	-24.73966	-648.37842	783.91254	-19.87720	-641.42078	-705.88586	25.94895	488.68124	711.55829	34.33155	574.56946	-5.51156	697.46869	-1000.73639	
904	9.030	-788.39246	-25.00537	-648.34729	784.22046	-20.07130	-641.38361	-705.58234	26.10424	488.65817	711.90485	34.70956	574.60638	-5.38768	697.35315	-1001.03833	
905	9.040	-788.14569	-25.29308	-648.36554	784.47363	-20.33090	-641.33539	-705.22247	26.43386	488.37500	712.14844	35.02159	574.52594	-4.89336	696.95392	-1001.42084	
906	9.050	-788.02692	-25.57056	-648.42358	784.79193	-20.62940	-641.35913	-704.91992	26.62412	488.33798	712.29962	35.11770	574.40710	-4.67828	696.21558	-1001.92505	
907	9.060	-788.04785	-25.70423	-648.46655	785.03558	-20.95678	-641.47626	-704.74139	26.58714	488.28925	712.42151	35.20182	574.31134	-4.58516	695.70105	-1002.12793	
908	9.070	-787.78259	-25.95564	-648.51752	785.01526	-21.28187	-641.71027	-704.65674	26.64203	488.27332	712.58002	35.48279	574.28833	-4.34910	695.34338	-1002.30634	
909	9.080	-787.30103	-26.30304	-648.57257	785.11877	-21.37684	-641.71796	-704.50671	26.94539	488.25000	712.72858	35.83094	574.27710	-4.14545	695.05811	-1002.48761	
910	9.090	-786.99139	-26.49986	-648.57062	785.50891	-21.46557	-641.61310	-704.36609	27.29685	488.31363	712.83612	35.96816	574.23303	-4.09829	694.88416	-1002.61786	
911	9.100	-786.73737	-26.89961	-648.60089	785.57520	-21.64401	-641.69666	-703.98303	27.40828	488.31342	713.09137	36.05048	574.15070	-4.01166	694.69116	-1002.67078	
912	9.110	-786.52478	-27.17112	-648.70526	785.76154	-21.97177	-641.77765	-703.77203	27.53867	488.23215	713.37018	36.09765	574.01959	-3.69910	694.36145	-1002.81287	
913	9.120	-786.35565	-27.38466	-648.71655	786.13770	-22.35969	-641.79095	-703.63385	27.73660	488.19904	713.64368	36.26099	574.04773	-3.21873	693.88898	-1002.88812	
914	9.130	-785.96167	-27.79059	-648.75989	786.39001	-22.61856	-641.81793	-703.39429	27.84461	488.18115	714.00616	36.59158	574.06073	-2.95740	693.51544	-1002.80603	
915	9.140	-786.00409	-27.57700	-648.84857	786.65503	-22.73632	-641.85748	-703.22412	28.02345	488.06641	714.32355	36.86760	574.07843	-2.63019	693.32898	-1002.93286	
916	9.150	-785.93719	-27.60346	-648.89886	786.88757	-22.78126	-641.83087	-703.12695	28.23998	487.98080	714.54968	37.01337	574.00098	-2.43588	693.13678	-1003.19012	
917	9.160	-785.78400	-27.78052	-648.94397	786.91345	-22.95234	-641.89429	-702.89996	28.24986	487.92953	714.68304	37.08839	573.87250	-2.39496	692.83685	-1003.53607	
918	9.170	-785.36688	-28.06860	-648.93536	786.88831	-23.22083	-641.98694	-702.57825	28.14756	487.84311	714.85907	37.22507	573.81525	-2.57211	692.58783	-1003.82440	
919	9.180	-785.28082	-28.40591	-648.90106	787.08716	-23.49739	-642.13525	-702.47693	28.20730	487.82504	715.08948	37.41367	573.83710	-2.21732	692.20563	-1004.29022	
920	9.190	-784.94037	-28.56934	-648.92731	787.44922	-23.47082	-642.15051	-702.29370	28.24652	487.86963	715.18945	37.48129	573.86859	-1.75826	691.96301	-1004.71820	
921	9.200	-784.71332	-28.49859	-648.95978	787.75647	-23.36217	-642.09796	-702.12219	28.48380	487.73904	715.31665	37.50834	573.81012	-1.61830	691.91150	-1004.88947	
922	9.210	-785.01782	-28.15709	-648.67267	788.10815	-23.35492	-641.98700	-701.90302	28.61013	487.51736	715.39008	37.50466	573.77222	-1.50164	691.86163	-1005.15161	
923	9.220	-784.71582	-28.43742	-648.94086	788.01837	-23.46213	-642.15625	-701.61578	28.60739	487.51007	715.51520	37.52491	573.72003	-1.28949	691.74902	-1005.44574	
924	9.230	-784.51508	-28.55085	-648.98517	788.26361	-23.69894	-642.06128	-701.38135	28.54293	487.46219	715.64020	37.57049	573.70728	-1.34008	691.67236	-1005.53973	
925	9.240	-784.24384	-28.70290	-648.99677	788.42102	-23.83825	-642.09296	-701.24969	28.59098	487.48483	715.75659	37.58752	573.70276	-1.28648	691.65814	-1005.66840	
926	9.250	-783.86121	-28.79912	-649.10345	788.62909	-23.75514	-642.06543	-701.12177	28.61762	487.42709	715.98425	37.58346	573.65448	-0.70402	691.39789	-1005.83685	
927	9.260	-783.55182	-28.74345	-649.10742	788.84973	-23.50682	-642.02521	-701.00226	28.69043	487.44257	716.21301	37.69039	573.61603	-0.49890	691.41626	-1005.84467	
928	9.270	-783.26172	-28.78126	-649.13348	789.12030	-23.69981	-641.98169	-700.89795	28.74432	487.33426	716.50238	37.57120	573.55969	-0.32032	691.33752	-1005.81281	
929	9.280	-783.04657	-29.07443	-649.12390	789.26624	-24.02217	-641.92120	-700.77502	28.76755	487.38919	716.65869	37.74240	573.58868	-0.21797	691.23322	-1005.56628	
930	9.290	-782.92609	-29.29806	-649.14185	789.41400	-24.12229	-641.93921	-700.63123	28.69749	487.41092	716.82263	37.83876	573.62512	-0.02790	691.16888	-1005.31842	
